<svg width="84" height="56" viewBox="0 0 84 56" fill="none" xmlns="http://www.w3.org/2000/svg">
<path d="M16.6667 22H0V25H16.6667L22 28L16.6667 22Z" fill="#2EAA28"/>
<path d="M39.6667 12H23V15.5H39.6667L45 19L39.6667 12Z" fill="#5599E5"/>
<path d="M73.2727 0H46V4.5H73.2727L82 9L73.2727 0Z" fill="#E9CF00"/>
<path d="M73.2727 8H46V12.5H73.2727L82 17L73.2727 8Z" fill="#E9CF00"/>
<path d="M73.2727 15H46V19.5H73.2727L82 24L73.2727 15Z" fill="#E9CF00"/>
<path d="M74.2727 23H47V27.5H74.2727L83 32L74.2727 23Z" fill="#E9CF00"/>
<path d="M75.2727 31H48V35.5H75.2727L84 40L75.2727 31Z" fill="#E9CF00"/>
<path d="M75.2727 39H48V43.5H75.2727L84 48L75.2727 39Z" fill="#E9CF00"/>
<path d="M73.2727 47H46V51.5H73.2727L82 56L73.2727 47Z" fill="#E9CF00"/>
<rect x="25" y="18" width="15" height="3" fill="#5599E5"/>
<rect x="26" y="24" width="15" height="3" fill="#5599E5"/>
<rect x="27" y="30" width="15" height="3" fill="#5599E5"/>
<rect x="4" y="27" width="13" height="3" fill="#2EAA28"/>
<rect x="7" y="33" width="12" height="3" fill="#2EAA28"/>
<rect x="8" y="38" width="12" height="3" fill="#2EAA28"/>
<rect x="8" y="43" width="12" height="3" fill="#2EAA28"/>
<rect x="7" y="48" width="14" height="3" fill="#2EAA28"/>
<rect x="28" y="36" width="15" height="3" fill="#5599E5"/>
<rect x="27" y="42" width="15" height="3" fill="#5599E5"/>
<rect x="26" y="48" width="15" height="3" fill="#5599E5"/>
</svg>
