<svg width="100" height="94" viewBox="0 0 100 94" fill="none" xmlns="http://www.w3.org/2000/svg">
<path d="M11.934 76H8.136L4.986 71.482L4.176 72.49V76H1.08V63.994H4.176V68.926L7.866 63.994H11.682L7.02 69.61L11.934 76ZM19.8773 76H12.8573V63.994H19.6613C20.7773 63.994 21.6413 64.3 22.2533 64.912C22.8653 65.512 23.1713 66.226 23.1713 67.054C23.1713 67.774 22.9733 68.38 22.5773 68.872C22.1933 69.364 21.7073 69.676 21.1193 69.808C21.7673 69.904 22.3073 70.234 22.7393 70.798C23.1833 71.35 23.4053 71.998 23.4053 72.742C23.4053 73.666 23.0993 74.44 22.4873 75.064C21.8753 75.688 21.0053 76 19.8773 76ZM18.9593 68.602C19.2713 68.602 19.5233 68.512 19.7153 68.332C19.9193 68.14 20.0213 67.894 20.0213 67.594C20.0213 67.306 19.9193 67.072 19.7153 66.892C19.5233 66.7 19.2713 66.604 18.9593 66.604H15.9533V68.602H18.9593ZM19.0673 73.39C19.4393 73.39 19.7273 73.294 19.9313 73.102C20.1473 72.898 20.2553 72.634 20.2553 72.31C20.2553 71.998 20.1473 71.74 19.9313 71.536C19.7273 71.332 19.4393 71.23 19.0673 71.23H15.9533V73.39H19.0673ZM36.7557 76H33.2457L32.6517 74.272H27.9177L27.3237 76H23.8137L28.3317 63.994H32.2197L36.7557 76ZM31.8057 71.572L30.2757 67.054L28.7457 71.572H31.8057ZM40.7385 76H37.6425V63.994H43.6545C44.9505 63.994 45.9705 64.378 46.7145 65.146C47.4585 65.902 47.8305 66.85 47.8305 67.99C47.8305 69.118 47.4585 70.066 46.7145 70.834C45.9705 71.59 44.9505 71.968 43.6545 71.968H40.7385V76ZM43.2405 69.268C43.6605 69.268 44.0025 69.154 44.2665 68.926C44.5425 68.698 44.6805 68.386 44.6805 67.99C44.6805 67.582 44.5425 67.264 44.2665 67.036C44.0025 66.808 43.6605 66.694 43.2405 66.694H40.7385V69.268H43.2405ZM54.9869 76H51.8909V66.694H48.5249V63.994H58.3349V66.694H54.9869V76ZM62.7965 76H59.8085V63.994H62.9045V71.068L67.7645 63.994H70.9685V76H67.8545V68.584L62.7965 76ZM76.2287 76H73.1327V63.994H79.1447C80.4407 63.994 81.4607 64.378 82.2047 65.146C82.9487 65.902 83.3207 66.85 83.3207 67.99C83.3207 69.118 82.9487 70.066 82.2047 70.834C81.4607 71.59 80.4407 71.968 79.1447 71.968H76.2287V76ZM78.7307 69.268C79.1507 69.268 79.4927 69.154 79.7567 68.926C80.0327 68.698 80.1707 68.386 80.1707 67.99C80.1707 67.582 80.0327 67.264 79.7567 67.036C79.4927 66.808 79.1507 66.694 78.7307 66.694H76.2287V69.268H78.7307ZM84.6991 63.994H87.7951V68.026H90.7111C92.0071 68.026 93.0271 68.41 93.7711 69.178C94.5151 69.934 94.8871 70.876 94.8871 72.004C94.8871 73.144 94.5151 74.098 93.7711 74.866C93.0271 75.622 92.0071 76 90.7111 76H84.6991V63.994ZM90.2971 70.726H87.7951V73.3H90.2971C90.7171 73.3 91.0591 73.186 91.3231 72.958C91.5991 72.73 91.7371 72.412 91.7371 72.004C91.7371 71.608 91.5991 71.296 91.3231 71.068C91.0591 70.84 90.7171 70.726 90.2971 70.726ZM98.8651 76H95.7691V63.994H98.8651V76Z" fill="#1B4FCC"/>
<path d="M5.844 90H2.05V83.238H5.774C6.362 83.238 6.824 83.3967 7.16 83.714C7.50533 84.0313 7.678 84.4513 7.678 84.974C7.678 85.3567 7.57067 85.688 7.356 85.968C7.15067 86.2387 6.894 86.4207 6.586 86.514C6.93133 86.598 7.22067 86.7987 7.454 87.116C7.69667 87.4333 7.818 87.7833 7.818 88.166C7.818 88.7167 7.64067 89.16 7.286 89.496C6.94067 89.832 6.46 90 5.844 90ZM5.634 89.076C5.97 89.076 6.236 88.9827 6.432 88.796C6.628 88.6093 6.726 88.3573 6.726 88.04C6.726 87.7507 6.628 87.5033 6.432 87.298C6.236 87.0927 5.97 86.99 5.634 86.99H3.1V89.076H5.634ZM5.592 86.066C5.90933 86.066 6.15667 85.982 6.334 85.814C6.51133 85.6367 6.6 85.408 6.6 85.128C6.6 84.8293 6.51133 84.596 6.334 84.428C6.15667 84.2507 5.90933 84.162 5.592 84.162H3.1V86.066H5.592ZM19.0393 90H17.9893V84.162H14.4613V90H13.4113V83.238H19.0393V90ZM26.5119 89.146C25.9053 89.8273 25.0979 90.168 24.0899 90.168C23.0819 90.168 22.2699 89.8273 21.6539 89.146C21.0473 88.4647 20.7439 87.62 20.7439 86.612C20.7439 85.604 21.0473 84.764 21.6539 84.092C22.2699 83.4107 23.0819 83.07 24.0899 83.07C25.0979 83.07 25.9053 83.4107 26.5119 84.092C27.1279 84.764 27.4359 85.604 27.4359 86.612C27.4359 87.62 27.1279 88.4647 26.5119 89.146ZM22.4379 88.474C22.8486 88.978 23.3993 89.23 24.0899 89.23C24.7806 89.23 25.3266 88.978 25.7279 88.474C26.1293 87.9607 26.3299 87.34 26.3299 86.612C26.3299 85.884 26.1293 85.268 25.7279 84.764C25.3266 84.26 24.7806 84.008 24.0899 84.008C23.3993 84.008 22.8486 84.2647 22.4379 84.778C22.0366 85.282 21.8359 85.8933 21.8359 86.612C21.8359 87.34 22.0366 87.9607 22.4379 88.474ZM28.3497 91.722V89.132C28.695 89.0667 28.9657 88.8613 29.1617 88.516C29.3577 88.1613 29.5163 87.5127 29.6377 86.57L30.0717 83.238H34.7757V89.076H35.5597V91.722H34.5097V90H29.3997V91.722H28.3497ZM30.9957 84.162L30.6877 86.696C30.529 87.8813 30.2023 88.6747 29.7077 89.076H33.7257V84.162H30.9957ZM43.8973 90H42.8473V84.694L40.6493 90H40.2573L38.0453 84.694V90H36.9953V83.238H38.3813L40.4533 88.25L42.4973 83.238H43.8973V90ZM51.3674 89.146C50.7607 89.8273 49.9534 90.168 48.9454 90.168C47.9374 90.168 47.1254 89.8273 46.5094 89.146C45.9027 88.4647 45.5994 87.62 45.5994 86.612C45.5994 85.604 45.9027 84.764 46.5094 84.092C47.1254 83.4107 47.9374 83.07 48.9454 83.07C49.9534 83.07 50.7607 83.4107 51.3674 84.092C51.9834 84.764 52.2914 85.604 52.2914 86.612C52.2914 87.62 51.9834 88.4647 51.3674 89.146ZM47.2934 88.474C47.7041 88.978 48.2547 89.23 48.9454 89.23C49.6361 89.23 50.1821 88.978 50.5834 88.474C50.9847 87.9607 51.1854 87.34 51.1854 86.612C51.1854 85.884 50.9847 85.268 50.5834 84.764C50.1821 84.26 49.6361 84.008 48.9454 84.008C48.2547 84.008 47.7041 84.2647 47.2934 84.778C46.8921 85.282 46.6914 85.8933 46.6914 86.612C46.6914 87.34 46.8921 87.9607 47.2934 88.474ZM56.9851 90.168C55.9865 90.168 55.1745 89.832 54.5491 89.16C53.9238 88.4787 53.6111 87.6293 53.6111 86.612C53.6111 85.5947 53.9238 84.75 54.5491 84.078C55.1745 83.406 55.9865 83.07 56.9851 83.07C58.0305 83.07 58.8565 83.462 59.4631 84.246L58.7631 84.89C58.3338 84.302 57.7598 84.008 57.0411 84.008C56.3318 84.008 55.7625 84.2507 55.3331 84.736C54.9131 85.2213 54.7031 85.8467 54.7031 86.612C54.7031 87.3773 54.9131 88.0073 55.3331 88.502C55.7625 88.9873 56.3318 89.23 57.0411 89.23C57.7505 89.23 58.3245 88.936 58.7631 88.348L59.4631 88.992C58.8565 89.776 58.0305 90.168 56.9851 90.168ZM66.8848 90H65.5408L63.1048 86.962L61.9848 88.068V90H60.9348V83.238H61.9848V86.836L65.5408 83.238H66.8708L63.8748 86.304L66.8848 90ZM73.4612 89.146C72.8545 89.8273 72.0472 90.168 71.0392 90.168C70.0312 90.168 69.2192 89.8273 68.6032 89.146C67.9965 88.4647 67.6932 87.62 67.6932 86.612C67.6932 85.604 67.9965 84.764 68.6032 84.092C69.2192 83.4107 70.0312 83.07 71.0392 83.07C72.0472 83.07 72.8545 83.4107 73.4612 84.092C74.0772 84.764 74.3852 85.604 74.3852 86.612C74.3852 87.62 74.0772 88.4647 73.4612 89.146ZM69.3872 88.474C69.7978 88.978 70.3485 89.23 71.0392 89.23C71.7298 89.23 72.2758 88.978 72.6772 88.474C73.0785 87.9607 73.2792 87.34 73.2792 86.612C73.2792 85.884 73.0785 85.268 72.6772 84.764C72.2758 84.26 71.7298 84.008 71.0392 84.008C70.3485 84.008 69.7978 84.2647 69.3872 84.778C68.9858 85.282 68.7852 85.8933 68.7852 86.612C68.7852 87.34 68.9858 87.9607 69.3872 88.474ZM79.8909 90H76.0969V83.238H79.8209C80.4089 83.238 80.8709 83.3967 81.2069 83.714C81.5522 84.0313 81.7249 84.4513 81.7249 84.974C81.7249 85.3567 81.6175 85.688 81.4029 85.968C81.1975 86.2387 80.9409 86.4207 80.6329 86.514C80.9782 86.598 81.2675 86.7987 81.5009 87.116C81.7435 87.4333 81.8649 87.7833 81.8649 88.166C81.8649 88.7167 81.6875 89.16 81.3329 89.496C80.9875 89.832 80.5069 90 79.8909 90ZM79.6809 89.076C80.0169 89.076 80.2829 88.9827 80.4789 88.796C80.6749 88.6093 80.7729 88.3573 80.7729 88.04C80.7729 87.7507 80.6749 87.5033 80.4789 87.298C80.2829 87.0927 80.0169 86.99 79.6809 86.99H77.1469V89.076H79.6809ZM79.6389 86.066C79.9562 86.066 80.2035 85.982 80.3809 85.814C80.5582 85.6367 80.6469 85.408 80.6469 85.128C80.6469 84.8293 80.5582 84.596 80.3809 84.428C80.2035 84.2507 79.9562 84.162 79.6389 84.162H77.1469V86.066H79.6389ZM83.8488 83.238H84.8988V85.856H87.4328C88.1048 85.856 88.6275 86.0567 89.0008 86.458C89.3742 86.85 89.5608 87.34 89.5608 87.928C89.5608 88.516 89.3695 89.0107 88.9868 89.412C88.6135 89.804 88.0955 90 87.4328 90H83.8488V83.238ZM87.3208 86.78H84.8988V89.076H87.3208C87.6942 89.076 87.9788 88.9733 88.1748 88.768C88.3802 88.5533 88.4828 88.2733 88.4828 87.928C88.4828 87.5827 88.3802 87.3073 88.1748 87.102C87.9788 86.8873 87.6942 86.78 87.3208 86.78ZM94.2153 90.168C93.2073 90.168 92.3813 89.8413 91.7373 89.188C91.0933 88.5253 90.7713 87.6667 90.7713 86.612C90.7713 85.6227 91.0886 84.7873 91.7233 84.106C92.3579 83.4153 93.1513 83.07 94.1033 83.07C95.1019 83.07 95.8906 83.4153 96.4693 84.106C97.0573 84.7873 97.3513 85.6507 97.3513 86.696V86.962H91.8773C91.9239 87.6247 92.1666 88.18 92.6053 88.628C93.0439 89.076 93.6133 89.3 94.3133 89.3C95.1533 89.3 95.8486 89.0153 96.3993 88.446L96.9033 89.132C96.2126 89.8227 95.3166 90.168 94.2153 90.168ZM96.3153 86.192C96.3059 85.6133 96.1099 85.0953 95.7273 84.638C95.3446 84.1713 94.7986 83.938 94.0893 83.938C93.4173 83.938 92.8853 84.1667 92.4933 84.624C92.1106 85.0813 91.9053 85.604 91.8773 86.192H96.3153Z" fill="#1B4FCC"/>
<path d="M23.6667 22H7V25H23.6667L29 28L23.6667 22Z" fill="#2EAA28"/>
<path d="M46.6667 12H30V15.5H46.6667L52 19L46.6667 12Z" fill="#5599E5"/>
<path d="M80.2727 0H53V4.5H80.2727L89 9L80.2727 0Z" fill="white"/>
<path d="M80.2727 8H53V12.5H80.2727L89 17L80.2727 8Z" fill="white"/>
<path d="M80.2727 15H53V19.5H80.2727L89 24L80.2727 15Z" fill="white"/>
<path d="M81.2727 23H54V27.5H81.2727L90 32L81.2727 23Z" fill="white"/>
<path d="M82.2727 31H55V35.5H82.2727L91 40L82.2727 31Z" fill="white"/>
<path d="M82.2727 39H55V43.5H82.2727L91 48L82.2727 39Z" fill="white"/>
<path d="M80.2727 47H53V51.5H80.2727L89 56L80.2727 47Z" fill="white"/>
<rect x="32" y="18" width="15" height="3" fill="#5599E5"/>
<rect x="33" y="24" width="15" height="3" fill="#5599E5"/>
<rect x="34" y="30" width="15" height="3" fill="#5599E5"/>
<rect x="11" y="27" width="13" height="3" fill="#2EAA28"/>
<rect x="14" y="33" width="12" height="3" fill="#2EAA28"/>
<rect x="15" y="38" width="12" height="3" fill="#2EAA28"/>
<rect x="15" y="43" width="12" height="3" fill="#2EAA28"/>
<rect x="14" y="48" width="14" height="3" fill="#2EAA28"/>
<rect x="35" y="36" width="15" height="3" fill="#5599E5"/>
<rect x="34" y="42" width="15" height="3" fill="#5599E5"/>
<rect x="33" y="48" width="15" height="3" fill="#5599E5"/>
</svg>
