<svg width="24" height="18" viewBox="0 0 24 18" fill="none" xmlns="http://www.w3.org/2000/svg">
<path d="M0.74998 2.24996H23.25C23.664 2.24996 23.9999 1.91394 23.9999 1.49998C23.9999 1.08596 23.6639 0.75 23.25 0.75H0.74998C0.336026 0.75 0 1.08596 0 1.49998C0 1.914 0.336026 2.24996 0.74998 2.24996Z" fill="#1B4FCC"/>
<path d="M23.25 8.25H0.74998C0.335964 8.25 0 8.58602 0 8.99998C0 9.41393 0.336026 9.74995 0.74998 9.74995H23.25C23.664 9.74995 23.9999 9.41393 23.9999 8.99998C23.9999 8.58602 23.664 8.25 23.25 8.25Z" fill="#1B4FCC"/>
<path d="M23.25 15.75H0.74998C0.335964 15.75 0 16.086 0 16.5C0 16.914 0.336026 17.25 0.74998 17.25H23.25C23.664 17.25 23.9999 16.9139 23.9999 16.5C24 16.086 23.664 15.75 23.25 15.75Z" fill="#1B4FCC"/>
</svg>
