<svg width="30" height="30" viewBox="0 0 30 30" fill="none" xmlns="http://www.w3.org/2000/svg">
<g clip-path="url(#clip0)">
<path d="M30.0533 20.3872C30.0533 21.0342 29.529 21.5588 28.8817 21.5588L28.5196 21.5591C28.4024 21.5591 28.285 21.5593 28.1683 21.5593C25.399 21.5593 22.7804 21.5183 20.3673 20.4698C17.5632 19.251 15.4246 16.8468 13.6375 12.9037C8.92365 2.50397 4.84474 2.34329 1.55045 2.34329C1.4978 2.34329 1.44539 2.34329 1.3932 2.34329L1.23024 2.34352C0.583191 2.34352 0.0585938 1.81892 0.0585938 1.17188C0.0585938 0.524597 0.583191 0.000228882 1.23024 0.000228882L1.39137 0C3.2341 0.000228882 5.52956 -0.00320435 8.06786 1.5802C10.8918 3.3419 13.4118 6.72935 15.7716 11.9362C19.0739 19.2215 22.8312 19.2167 28.5182 19.2158L28.8817 19.2155C29.529 19.2155 30.0533 19.7401 30.0533 20.3872ZM28.8817 27.6517C28.5805 27.6517 28.2761 27.6528 27.9694 27.654C23.497 27.673 18.8715 27.691 15.5802 24.1058C15.1426 23.6291 14.4012 23.5975 13.9247 24.0351C13.448 24.4727 13.4164 25.2139 13.854 25.6906C15.65 27.6471 17.9111 28.894 20.766 29.5022C22.8539 29.9471 24.9596 30 27.0158 30C27.3381 30 27.6592 29.9986 27.9787 29.9975C28.2825 29.9961 28.5837 29.995 28.8817 29.995C29.5287 29.995 30.0533 29.4704 30.0533 28.8233C30.0533 28.1763 29.529 27.6517 28.8817 27.6517ZM5.46455 9.78539C5.68977 10.1262 6.06262 10.3109 6.44279 10.3109C6.66481 10.3109 6.88911 10.248 7.08801 10.1166C7.62772 9.75952 7.77603 9.03282 7.4192 8.49289C6.53091 7.14935 5.66963 6.24046 4.70879 5.63255C3.70331 4.99603 2.56531 4.68681 1.23024 4.68681C0.583191 4.68681 0.0585938 5.21141 0.0585938 5.85846C0.0585938 6.50551 0.583191 7.03011 1.23024 7.03011C2.75803 7.03011 3.94089 7.481 5.46455 9.78539ZM18.4538 10.7893C18.4538 9.4986 19.0844 6.86737 19.8891 4.79919C21.1283 1.61476 22.5968 0.000228882 24.2537 0.000228882C25.9106 0.000228882 27.3791 1.61476 28.6182 4.79919C29.423 6.86737 30.0533 9.4986 30.0533 10.7893C30.0533 12.1843 29.3257 13.2779 28.0046 13.8689C27.3235 14.1733 26.4878 14.3564 25.4253 14.4301V16.401C25.4253 17.0483 24.9007 17.5729 24.2537 17.5729C23.6066 17.5729 23.082 17.0483 23.082 16.401V14.4301C22.0196 14.3564 21.1837 14.1733 20.5028 13.8689C19.1814 13.2779 18.4538 12.1843 18.4538 10.7893ZM20.7971 10.7893C20.7971 11.1374 20.7976 11.892 23.082 12.0808V8.55331C23.082 7.90627 23.6066 7.38167 24.2537 7.38167C24.9007 7.38167 25.4253 7.90627 25.4253 8.55331V12.0808C27.7096 11.892 27.71 11.1374 27.71 10.7893C27.71 10.0088 27.2667 7.78816 26.4342 5.64903C25.3844 2.95074 24.4858 2.34352 24.2537 2.34352C24.0216 2.34352 23.123 2.95074 22.0729 5.64903C21.2405 7.78793 20.7971 10.0088 20.7971 10.7893ZM10.2237 17.1867C11.028 19.2657 11.6581 21.9065 11.6581 23.1995C11.6581 24.5945 10.9305 25.6881 9.60915 26.2788C8.92822 26.5835 8.09258 26.7666 7.03011 26.8403V28.8233C7.03011 29.4704 6.50551 29.995 5.85846 29.995C5.21118 29.995 4.68681 29.4704 4.68681 28.8233V26.8403C3.62434 26.7666 2.78847 26.5835 2.10754 26.2788C0.786209 25.6881 0.0585938 24.5943 0.0585938 23.1995C0.0585938 21.9067 0.688705 19.2657 1.493 17.1867C2.73216 13.9849 4.20067 12.3612 5.85846 12.3612C7.51602 12.3612 8.98453 13.9849 10.2237 17.1867ZM9.3148 23.1995C9.3148 22.4162 8.87123 20.1851 8.03833 18.0325C7.06535 15.518 6.14937 14.7045 5.85846 14.7045C5.56732 14.7045 4.65134 15.518 3.67859 18.0325C2.84546 20.1851 2.40189 22.4162 2.40189 23.1995C2.40189 23.5474 2.40234 24.302 4.68681 24.491V20.9635C4.68681 20.3162 5.21118 19.7916 5.85846 19.7916C6.50551 19.7916 7.03011 20.3162 7.03011 20.9635V24.491C9.31435 24.302 9.3148 23.5474 9.3148 23.1995Z" fill="#FED700"/>
</g>
<defs>
<clipPath id="clip0">
<rect width="30" height="30" fill="white"/>
</clipPath>
</defs>
</svg>
