<svg width="20" height="20" viewBox="0 0 20 20" fill="none" xmlns="http://www.w3.org/2000/svg">
<g clip-path="url(#clip0)">
<path d="M20.0356 13.5915C20.0356 14.0228 19.686 14.3726 19.2545 14.3726L19.0131 14.3727C18.9349 14.3727 18.8567 14.3729 18.7788 14.3729C16.9327 14.3729 15.1869 14.3456 13.5782 13.6465C11.7088 12.834 10.2831 11.2312 9.09164 8.60245C5.9491 1.66931 3.22983 1.56219 1.03363 1.56219C0.998535 1.56219 0.963593 1.56219 0.928802 1.56219L0.82016 1.56235C0.388794 1.56235 0.0390625 1.21262 0.0390625 0.78125C0.0390625 0.349731 0.388794 0.000152588 0.82016 0.000152588L0.927582 0C2.15607 0.000152588 3.68637 -0.00213623 5.37857 1.05347C7.2612 2.22794 8.94119 4.48624 10.5144 7.95746C12.7159 12.8143 15.2208 12.8111 19.0121 12.8105L19.2545 12.8104C19.686 12.8104 20.0356 13.1601 20.0356 13.5915ZM19.2545 18.4344C19.0536 18.4344 18.8507 18.4352 18.6462 18.436C15.6647 18.4486 12.581 18.4607 10.3868 16.0706C10.0951 15.7527 9.60083 15.7317 9.28314 16.0234C8.9653 16.3152 8.94424 16.8092 9.23599 17.1271C10.4333 18.4314 11.9408 19.2627 13.844 19.6681C15.2359 19.9648 16.6397 20 18.0106 20C18.2254 20 18.4395 19.9991 18.6525 19.9983C18.855 19.9974 19.0558 19.9966 19.2545 19.9966C19.6858 19.9966 20.0356 19.6469 20.0356 19.2155C20.0356 18.7842 19.686 18.4344 19.2545 18.4344ZM3.64304 6.52359C3.79318 6.75079 4.04175 6.87393 4.2952 6.87393C4.44321 6.87393 4.59274 6.83197 4.72534 6.74438C5.08514 6.50635 5.18402 6.02188 4.94614 5.66193C4.35394 4.76624 3.77975 4.16031 3.13919 3.75504C2.46887 3.33069 1.71021 3.12454 0.82016 3.12454C0.388794 3.12454 0.0390625 3.47427 0.0390625 3.90564C0.0390625 4.33701 0.388794 4.68674 0.82016 4.68674C1.83868 4.68674 2.62726 4.98734 3.64304 6.52359ZM12.3026 7.19284C12.3026 6.3324 12.7229 4.57825 13.2594 3.19946C14.0855 1.07651 15.0645 0.000152588 16.1691 0.000152588C17.2737 0.000152588 18.2527 1.07651 19.0788 3.19946C19.6153 4.57825 20.0356 6.3324 20.0356 7.19284C20.0356 8.12286 19.5505 8.85193 18.6697 9.24591C18.2156 9.44885 17.6585 9.57092 16.9502 9.62006V10.934C16.9502 11.3655 16.6005 11.7152 16.1691 11.7152C15.7378 11.7152 15.388 11.3655 15.388 10.934V9.62006C14.6797 9.57092 14.1225 9.44885 13.6685 9.24591C12.7876 8.85193 12.3026 8.12286 12.3026 7.19284ZM13.8647 7.19284C13.8647 7.42493 13.8651 7.92801 15.388 8.05389V5.70221C15.388 5.27084 15.7378 4.92111 16.1691 4.92111C16.6005 4.92111 16.9502 5.27084 16.9502 5.70221V8.05389C18.4731 7.92801 18.4734 7.42493 18.4734 7.19284C18.4734 6.67252 18.1778 5.19211 17.6228 3.76602C16.9229 1.96716 16.3239 1.56235 16.1691 1.56235C16.0144 1.56235 15.4153 1.96716 14.7153 3.76602C14.1603 5.19196 13.8647 6.67252 13.8647 7.19284ZM6.8158 11.4578C7.35199 12.8438 7.77206 14.6043 7.77206 15.4663C7.77206 16.3963 7.28699 17.1254 6.4061 17.5192C5.95215 17.7223 5.39505 17.8444 4.68674 17.8935V19.2155C4.68674 19.6469 4.33701 19.9966 3.90564 19.9966C3.47412 19.9966 3.12454 19.6469 3.12454 19.2155V17.8935C2.41623 17.8444 1.85898 17.7223 1.40503 17.5192C0.524139 17.1254 0.0390625 16.3962 0.0390625 15.4663C0.0390625 14.6045 0.459137 12.8438 0.995331 11.4578C1.82144 9.32327 2.80045 8.24081 3.90564 8.24081C5.01068 8.24081 5.98969 9.32327 6.8158 11.4578ZM6.20987 15.4663C6.20987 14.9442 5.91415 13.4567 5.35889 12.0216C4.71024 10.3453 4.09958 9.80301 3.90564 9.80301C3.71155 9.80301 3.10089 10.3453 2.45239 12.0216C1.89697 13.4567 1.60126 14.9442 1.60126 15.4663C1.60126 15.6982 1.60156 16.2013 3.12454 16.3274V13.9757C3.12454 13.5442 3.47412 13.1944 3.90564 13.1944C4.33701 13.1944 4.68674 13.5442 4.68674 13.9757V16.3274C6.20956 16.2013 6.20987 15.6982 6.20987 15.4663Z" fill="#1B4FCC" fill-opacity="0.51"/>
</g>
<defs>
<clipPath id="clip0">
<rect width="20" height="20" fill="white"/>
</clipPath>
</defs>
</svg>
