<svg width="14" height="18" viewBox="0 0 14 18" fill="none" xmlns="http://www.w3.org/2000/svg">
<path d="M2.328 18V14.736H0.24V13.176H2.328V11.04H0.24V9.216H2.328V0.863999H6.84C8.936 0.863999 10.488 1.288 11.496 2.136C12.52 2.984 13.032 4.216 13.032 5.832C13.032 7.464 12.48 8.744 11.376 9.672C10.272 10.584 8.648 11.04 6.504 11.04H4.488V13.176H8.448V14.736H4.488V18H2.328ZM6.192 9.216C7.648 9.216 8.776 8.976 9.576 8.496C10.392 8.016 10.8 7.152 10.8 5.904C10.8 4.816 10.464 4.008 9.792 3.48C9.12 2.952 8.072 2.688 6.648 2.688H4.488V9.216H6.192Z" fill="#333333"/>
</svg>
