<svg width="20" height="20" viewBox="0 0 20 20" fill="none" xmlns="http://www.w3.org/2000/svg">
<path d="M19.2188 14.5312C19.6503 14.5312 20 14.1815 20 13.75V8.28125C20 6.98883 18.9487 5.9375 17.6562 5.9375H14.8828C13.5904 5.9375 12.5391 6.98883 12.5391 8.28125V12.4219H10.9375V4.90097L15.2344 2.22672V3.59375C15.2344 4.02527 15.5841 4.375 16.0156 4.375C16.4471 4.375 16.7969 4.02527 16.7969 3.59375V0.820312C16.7969 0.536499 16.6431 0.275116 16.395 0.137329C16.147 -0.000457764 15.8437 0.00717163 15.6029 0.157013L10.9375 3.06061V2.34375C10.9375 1.05133 9.88617 0 8.59375 0H2.34375C1.05133 0 0 1.05133 0 2.34375V17.6562C0 18.9487 1.05133 20 2.34375 20H17.6562C18.9487 20 20 18.9487 20 17.6562C20 17.2247 19.6503 16.875 19.2188 16.875C18.7872 16.875 18.4375 17.2247 18.4375 17.6562C18.4375 18.087 18.087 18.4375 17.6562 18.4375H14.1016V8.28125C14.1016 7.85049 14.4521 7.5 14.8828 7.5H17.6562C18.087 7.5 18.4375 7.85049 18.4375 8.28125V13.75C18.4375 14.1815 18.7872 14.5312 19.2188 14.5312ZM1.5625 17.6562V2.34375C1.5625 1.91299 1.91299 1.5625 2.34375 1.5625H8.59375C9.02451 1.5625 9.375 1.91299 9.375 2.34375V12.4219H5.46875C4.17633 12.4219 3.125 13.4732 3.125 14.7656V18.4375H2.34375C1.91299 18.4375 1.5625 18.087 1.5625 17.6562ZM4.6875 14.7656C4.6875 14.3349 5.03799 13.9844 5.46875 13.9844H12.5391V18.4375H4.6875V14.7656ZM17.0703 9.84375C17.0703 10.2753 16.7206 10.625 16.2891 10.625C15.8575 10.625 15.5078 10.2753 15.5078 9.84375C15.5078 9.41223 15.8575 9.0625 16.2891 9.0625C16.7206 9.0625 17.0703 9.41223 17.0703 9.84375ZM17.0703 12.9688C17.0703 13.4003 16.7206 13.75 16.2891 13.75C15.8575 13.75 15.5078 13.4003 15.5078 12.9688C15.5078 12.5372 15.8575 12.1875 16.2891 12.1875C16.7206 12.1875 17.0703 12.5372 17.0703 12.9688ZM17.0703 16.0938C17.0703 16.5253 16.7206 16.875 16.2891 16.875C15.8575 16.875 15.5078 16.5253 15.5078 16.0938C15.5078 15.6622 15.8575 15.3125 16.2891 15.3125C16.7206 15.3125 17.0703 15.6622 17.0703 16.0938ZM3.125 3.90625C3.125 3.47473 3.47473 3.125 3.90625 3.125C4.33777 3.125 4.6875 3.47473 4.6875 3.90625C4.6875 4.33777 4.33777 4.6875 3.90625 4.6875C3.47473 4.6875 3.125 4.33777 3.125 3.90625ZM6.25 3.90625C6.25 3.47473 6.59973 3.125 7.03125 3.125C7.46277 3.125 7.8125 3.47473 7.8125 3.90625C7.8125 4.33777 7.46277 4.6875 7.03125 4.6875C6.59973 4.6875 6.25 4.33777 6.25 3.90625ZM3.125 7.03125C3.125 6.59973 3.47473 6.25 3.90625 6.25C4.33777 6.25 4.6875 6.59973 4.6875 7.03125C4.6875 7.46277 4.33777 7.8125 3.90625 7.8125C3.47473 7.8125 3.125 7.46277 3.125 7.03125ZM6.25 7.03125C6.25 6.59973 6.59973 6.25 7.03125 6.25C7.46277 6.25 7.8125 6.59973 7.8125 7.03125C7.8125 7.46277 7.46277 7.8125 7.03125 7.8125C6.59973 7.8125 6.25 7.46277 6.25 7.03125ZM3.125 10.1562C3.125 9.72473 3.47473 9.375 3.90625 9.375C4.33777 9.375 4.6875 9.72473 4.6875 10.1562C4.6875 10.5878 4.33777 10.9375 3.90625 10.9375C3.47473 10.9375 3.125 10.5878 3.125 10.1562ZM6.25 10.1562C6.25 9.72473 6.59973 9.375 7.03125 9.375C7.46277 9.375 7.8125 9.72473 7.8125 10.1562C7.8125 10.5878 7.46277 10.9375 7.03125 10.9375C6.59973 10.9375 6.25 10.5878 6.25 10.1562ZM7.8125 16.3281C7.8125 16.7596 7.46277 17.1094 7.03125 17.1094C6.59973 17.1094 6.25 16.7596 6.25 16.3281C6.25 15.8966 6.59973 15.5469 7.03125 15.5469C7.46277 15.5469 7.8125 15.8966 7.8125 16.3281ZM10.9375 16.3281C10.9375 16.7596 10.5878 17.1094 10.1562 17.1094C9.72473 17.1094 9.375 16.7596 9.375 16.3281C9.375 15.8966 9.72473 15.5469 10.1562 15.5469C10.5878 15.5469 10.9375 15.8966 10.9375 16.3281Z" fill="#1B4FCC" fill-opacity="0.51"/>
</svg>
